# xmcd
#
# Track frame offsets:
#	150
#	12150
#	23387
#	36962
#	51502
#	64040
#	76317
#	92192
#	108822
#	120685
#	133765
#	148972
#	160420
#	175700
#	188845
#	201190
#	216385
#
# Disc length: 3188 seconds
#
# Revision: 2
# Processed by: cddbd v1.5.2PL0 Copyright (c) Steve Scherf et al.
# Submitted via: audiograbber 1.83.01
#
DISCID=f00c7211
DTITLE=Gatlin, Larry and The Gatlin Brothers - 17 Greatest Hits
DYEAR=1985
DGENRE=Country
TTITLE0=Broken Lady
TTITLE1=Night Time Magic
TTITLE2=Sweet Becky Walker
TTITLE3=I Just Wish You Were Someone I Love
TTITLE4=I Don't Wanna Cry
TTITLE5=Statues Without Hearts
TTITLE6=Love is Just a Game
TTITLE7=Denver
TTITLE8=All the Gold in California
TTITLE9=Almost Called Her Baby By Mistake
TTITLE10=She Used to Sing on Sunday
TTITLE11=What Are We Doin' Lonesome
TTITLE12=Sure Feels Like Love
TTITLE13=Houston (Means I'm One Day Closer to You)
TTITLE14=Take Me to Your Lovin' Place
TTITLE15=Taking Somebody With Me When I Fall
TTITLE16=Midnight Choir (Mogen David)
EXTD=
EXTT0=
EXTT1=
EXTT2=
EXTT3=
EXTT4=
EXTT5=
EXTT6=
EXTT7=
EXTT8=
EXTT9=
EXTT10=
EXTT11=
EXTT12=
EXTT13=
EXTT14=
EXTT15=
EXTT16=
PLAYORDER=
